<mxfile host="app.diagrams.net" modified="2024-02-28T18:01:23.843Z" agent="Mozilla/5.0 (Macintosh; Intel Mac OS X 10_15_7) AppleWebKit/605.1.15 (KHTML, like Gecko) Version/17.1 Safari/605.1.15" version="23.1.6" etag="OEFJ_lhs7lIL4ojxgdoZ" type="github">
  <diagram name="Page-1" id="j7WM0uQH34lMeTY0Ia8Q">
    <mxGraphModel>
      <root>
        <mxCell id="0" />
        <mxCell id="1" parent="0" />
      </root>
    </mxGraphModel>
  </diagram>
</mxfile>
